<mxfile host="app.diagrams.net" modified="2020-09-18T13:42:13.986Z" agent="5.0 (Windows NT 10.0; Win64; x64) AppleWebKit/537.36 (KHTML, like Gecko) Chrome/85.0.4183.102 Safari/537.36" etag="JQlVHDSdJ9puBHnsQFQ4" version="13.6.10" type="github" pages="2">
  <diagram id="C5RBs43oDa-KdzZeNtuy" name="Page-1">
    <mxGraphModel dx="868" dy="450" grid="1" gridSize="10" guides="1" tooltips="1" connect="1" arrows="1" fold="1" page="1" pageScale="1" pageWidth="827" pageHeight="1169" math="0" shadow="0">
      <root>
        <mxCell id="WIyWlLk6GJQsqaUBKTNV-0" />
        <mxCell id="WIyWlLk6GJQsqaUBKTNV-1" parent="WIyWlLk6GJQsqaUBKTNV-0" />
        <mxCell id="zkfFHV4jXpPFQw0GAbJ--0" value="Livros" style="swimlane;fontStyle=2;align=center;verticalAlign=top;childLayout=stackLayout;horizontal=1;startSize=26;horizontalStack=0;resizeParent=1;resizeLast=0;collapsible=1;marginBottom=0;rounded=0;shadow=0;strokeWidth=1;" parent="WIyWlLk6GJQsqaUBKTNV-1" vertex="1">
          <mxGeometry x="220" y="120" width="160" height="236" as="geometry">
            <mxRectangle x="220" y="120" width="160" height="26" as="alternateBounds" />
          </mxGeometry>
        </mxCell>
        <mxCell id="zkfFHV4jXpPFQw0GAbJ--1" value="- Nome : String" style="text;align=left;verticalAlign=top;spacingLeft=4;spacingRight=4;overflow=hidden;rotatable=0;points=[[0,0.5],[1,0.5]];portConstraint=eastwest;" parent="zkfFHV4jXpPFQw0GAbJ--0" vertex="1">
          <mxGeometry y="26" width="160" height="26" as="geometry" />
        </mxCell>
        <mxCell id="zkfFHV4jXpPFQw0GAbJ--2" value="- ISBN : String" style="text;align=left;verticalAlign=top;spacingLeft=4;spacingRight=4;overflow=hidden;rotatable=0;points=[[0,0.5],[1,0.5]];portConstraint=eastwest;rounded=0;shadow=0;html=0;" parent="zkfFHV4jXpPFQw0GAbJ--0" vertex="1">
          <mxGeometry y="52" width="160" height="26" as="geometry" />
        </mxCell>
        <mxCell id="zkfFHV4jXpPFQw0GAbJ--3" value="- Preco de custo : Float" style="text;align=left;verticalAlign=top;spacingLeft=4;spacingRight=4;overflow=hidden;rotatable=0;points=[[0,0.5],[1,0.5]];portConstraint=eastwest;rounded=0;shadow=0;html=0;" parent="zkfFHV4jXpPFQw0GAbJ--0" vertex="1">
          <mxGeometry y="78" width="160" height="26" as="geometry" />
        </mxCell>
        <mxCell id="8GH31ieOLAJzRrPrlHAe-11" value="- GÃªnero : String&amp;nbsp;" style="text;html=1;align=left;verticalAlign=middle;resizable=0;points=[];autosize=1;" vertex="1" parent="zkfFHV4jXpPFQw0GAbJ--0">
          <mxGeometry y="104" width="160" height="20" as="geometry" />
        </mxCell>
        <mxCell id="zkfFHV4jXpPFQw0GAbJ--4" value="" style="line;html=1;strokeWidth=1;align=left;verticalAlign=middle;spacingTop=-1;spacingLeft=3;spacingRight=3;rotatable=0;labelPosition=right;points=[];portConstraint=eastwest;" parent="zkfFHV4jXpPFQw0GAbJ--0" vertex="1">
          <mxGeometry y="124" width="160" height="66" as="geometry" />
        </mxCell>
        <mxCell id="8GH31ieOLAJzRrPrlHAe-9" value="- Editar Livro () : void" style="text;html=1;align=left;verticalAlign=middle;resizable=0;points=[];autosize=1;" vertex="1" parent="zkfFHV4jXpPFQw0GAbJ--0">
          <mxGeometry y="190" width="160" height="20" as="geometry" />
        </mxCell>
        <mxCell id="zkfFHV4jXpPFQw0GAbJ--5" value="- Cadastrar livro () : void" style="text;align=left;verticalAlign=top;spacingLeft=4;spacingRight=4;overflow=hidden;rotatable=0;points=[[0,0.5],[1,0.5]];portConstraint=eastwest;" parent="zkfFHV4jXpPFQw0GAbJ--0" vertex="1">
          <mxGeometry y="210" width="160" height="26" as="geometry" />
        </mxCell>
        <mxCell id="zkfFHV4jXpPFQw0GAbJ--17" value="Address" style="swimlane;fontStyle=0;align=center;verticalAlign=top;childLayout=stackLayout;horizontal=1;startSize=26;horizontalStack=0;resizeParent=1;resizeLast=0;collapsible=1;marginBottom=0;rounded=0;shadow=0;strokeWidth=1;" parent="WIyWlLk6GJQsqaUBKTNV-1" vertex="1">
          <mxGeometry x="508" y="120" width="160" height="216" as="geometry">
            <mxRectangle x="550" y="140" width="160" height="26" as="alternateBounds" />
          </mxGeometry>
        </mxCell>
        <mxCell id="zkfFHV4jXpPFQw0GAbJ--18" value="Street" style="text;align=left;verticalAlign=top;spacingLeft=4;spacingRight=4;overflow=hidden;rotatable=0;points=[[0,0.5],[1,0.5]];portConstraint=eastwest;" parent="zkfFHV4jXpPFQw0GAbJ--17" vertex="1">
          <mxGeometry y="26" width="160" height="26" as="geometry" />
        </mxCell>
        <mxCell id="zkfFHV4jXpPFQw0GAbJ--19" value="City" style="text;align=left;verticalAlign=top;spacingLeft=4;spacingRight=4;overflow=hidden;rotatable=0;points=[[0,0.5],[1,0.5]];portConstraint=eastwest;rounded=0;shadow=0;html=0;" parent="zkfFHV4jXpPFQw0GAbJ--17" vertex="1">
          <mxGeometry y="52" width="160" height="26" as="geometry" />
        </mxCell>
        <mxCell id="zkfFHV4jXpPFQw0GAbJ--20" value="State" style="text;align=left;verticalAlign=top;spacingLeft=4;spacingRight=4;overflow=hidden;rotatable=0;points=[[0,0.5],[1,0.5]];portConstraint=eastwest;rounded=0;shadow=0;html=0;" parent="zkfFHV4jXpPFQw0GAbJ--17" vertex="1">
          <mxGeometry y="78" width="160" height="26" as="geometry" />
        </mxCell>
        <mxCell id="zkfFHV4jXpPFQw0GAbJ--21" value="Postal Code" style="text;align=left;verticalAlign=top;spacingLeft=4;spacingRight=4;overflow=hidden;rotatable=0;points=[[0,0.5],[1,0.5]];portConstraint=eastwest;rounded=0;shadow=0;html=0;" parent="zkfFHV4jXpPFQw0GAbJ--17" vertex="1">
          <mxGeometry y="104" width="160" height="26" as="geometry" />
        </mxCell>
        <mxCell id="zkfFHV4jXpPFQw0GAbJ--22" value="Country" style="text;align=left;verticalAlign=top;spacingLeft=4;spacingRight=4;overflow=hidden;rotatable=0;points=[[0,0.5],[1,0.5]];portConstraint=eastwest;rounded=0;shadow=0;html=0;" parent="zkfFHV4jXpPFQw0GAbJ--17" vertex="1">
          <mxGeometry y="130" width="160" height="26" as="geometry" />
        </mxCell>
        <mxCell id="zkfFHV4jXpPFQw0GAbJ--23" value="" style="line;html=1;strokeWidth=1;align=left;verticalAlign=middle;spacingTop=-1;spacingLeft=3;spacingRight=3;rotatable=0;labelPosition=right;points=[];portConstraint=eastwest;" parent="zkfFHV4jXpPFQw0GAbJ--17" vertex="1">
          <mxGeometry y="156" width="160" height="8" as="geometry" />
        </mxCell>
        <mxCell id="zkfFHV4jXpPFQw0GAbJ--24" value="Validate" style="text;align=left;verticalAlign=top;spacingLeft=4;spacingRight=4;overflow=hidden;rotatable=0;points=[[0,0.5],[1,0.5]];portConstraint=eastwest;" parent="zkfFHV4jXpPFQw0GAbJ--17" vertex="1">
          <mxGeometry y="164" width="160" height="26" as="geometry" />
        </mxCell>
        <mxCell id="zkfFHV4jXpPFQw0GAbJ--25" value="Output As Label" style="text;align=left;verticalAlign=top;spacingLeft=4;spacingRight=4;overflow=hidden;rotatable=0;points=[[0,0.5],[1,0.5]];portConstraint=eastwest;" parent="zkfFHV4jXpPFQw0GAbJ--17" vertex="1">
          <mxGeometry y="190" width="160" height="26" as="geometry" />
        </mxCell>
      </root>
    </mxGraphModel>
  </diagram>
  <diagram id="iYQBQfJEhshgsyv_vMUT" name="Page-2">
    <mxGraphModel dx="1447" dy="750" grid="1" gridSize="10" guides="1" tooltips="1" connect="1" arrows="1" fold="1" page="1" pageScale="1" pageWidth="827" pageHeight="1169" math="0" shadow="0">
      <root>
        <mxCell id="b4Ela1Tb-xCsp0HTF6S3-0" />
        <mxCell id="b4Ela1Tb-xCsp0HTF6S3-1" parent="b4Ela1Tb-xCsp0HTF6S3-0" />
        <mxCell id="b4Ela1Tb-xCsp0HTF6S3-24" style="edgeStyle=orthogonalEdgeStyle;rounded=0;orthogonalLoop=1;jettySize=auto;html=1;" edge="1" parent="b4Ela1Tb-xCsp0HTF6S3-1" source="b4Ela1Tb-xCsp0HTF6S3-9" target="b4Ela1Tb-xCsp0HTF6S3-22">
          <mxGeometry relative="1" as="geometry" />
        </mxCell>
        <mxCell id="b4Ela1Tb-xCsp0HTF6S3-30" style="edgeStyle=orthogonalEdgeStyle;rounded=0;orthogonalLoop=1;jettySize=auto;html=1;entryX=0;entryY=0.5;entryDx=0;entryDy=0;" edge="1" parent="b4Ela1Tb-xCsp0HTF6S3-1" source="b4Ela1Tb-xCsp0HTF6S3-9" target="b4Ela1Tb-xCsp0HTF6S3-29">
          <mxGeometry relative="1" as="geometry" />
        </mxCell>
        <mxCell id="b4Ela1Tb-xCsp0HTF6S3-36" style="edgeStyle=orthogonalEdgeStyle;rounded=0;orthogonalLoop=1;jettySize=auto;html=1;entryX=0;entryY=0.75;entryDx=0;entryDy=0;entryPerimeter=0;" edge="1" parent="b4Ela1Tb-xCsp0HTF6S3-1" source="b4Ela1Tb-xCsp0HTF6S3-9" target="b4Ela1Tb-xCsp0HTF6S3-25">
          <mxGeometry relative="1" as="geometry" />
        </mxCell>
        <mxCell id="b4Ela1Tb-xCsp0HTF6S3-9" value="vendedores" style="shape=umlActor;verticalLabelPosition=bottom;verticalAlign=top;html=1;align=left;" vertex="1" parent="b4Ela1Tb-xCsp0HTF6S3-1">
          <mxGeometry x="330" y="620" width="70" height="120" as="geometry" />
        </mxCell>
        <mxCell id="b4Ela1Tb-xCsp0HTF6S3-11" value="&lt;font style=&quot;font-size: 20px&quot;&gt;Sistema de Controle de Vendas e Estoque&lt;/font&gt;" style="text;html=1;align=center;verticalAlign=middle;resizable=0;points=[];autosize=1;" vertex="1" parent="b4Ela1Tb-xCsp0HTF6S3-1">
          <mxGeometry x="165" y="40" width="390" height="20" as="geometry" />
        </mxCell>
        <mxCell id="b4Ela1Tb-xCsp0HTF6S3-34" style="edgeStyle=orthogonalEdgeStyle;rounded=0;orthogonalLoop=1;jettySize=auto;html=1;entryX=0;entryY=0.5;entryDx=0;entryDy=0;" edge="1" parent="b4Ela1Tb-xCsp0HTF6S3-1" source="b4Ela1Tb-xCsp0HTF6S3-12" target="b4Ela1Tb-xCsp0HTF6S3-32">
          <mxGeometry relative="1" as="geometry">
            <Array as="points">
              <mxPoint x="90" y="830" />
            </Array>
          </mxGeometry>
        </mxCell>
        <mxCell id="b4Ela1Tb-xCsp0HTF6S3-35" style="edgeStyle=orthogonalEdgeStyle;rounded=0;orthogonalLoop=1;jettySize=auto;html=1;entryX=0;entryY=0.5;entryDx=0;entryDy=0;" edge="1" parent="b4Ela1Tb-xCsp0HTF6S3-1" source="b4Ela1Tb-xCsp0HTF6S3-12" target="b4Ela1Tb-xCsp0HTF6S3-31">
          <mxGeometry relative="1" as="geometry">
            <Array as="points">
              <mxPoint x="90" y="980" />
            </Array>
          </mxGeometry>
        </mxCell>
        <mxCell id="b4Ela1Tb-xCsp0HTF6S3-12" value="Gerente" style="shape=umlActor;verticalLabelPosition=bottom;verticalAlign=top;html=1;outlineConnect=0;align=left;" vertex="1" parent="b4Ela1Tb-xCsp0HTF6S3-1">
          <mxGeometry x="40" y="680" width="70" height="100" as="geometry" />
        </mxCell>
        <mxCell id="b4Ela1Tb-xCsp0HTF6S3-22" value="&lt;font style=&quot;font-size: 23px&quot;&gt;Faz Login&lt;/font&gt;" style="ellipse;whiteSpace=wrap;html=1;align=left;" vertex="1" parent="b4Ela1Tb-xCsp0HTF6S3-1">
          <mxGeometry x="650" y="820" width="120" height="90" as="geometry" />
        </mxCell>
        <mxCell id="b4Ela1Tb-xCsp0HTF6S3-25" value="&lt;font style=&quot;font-size: 23px&quot;&gt;Vender&lt;/font&gt;" style="ellipse;whiteSpace=wrap;html=1;align=left;" vertex="1" parent="b4Ela1Tb-xCsp0HTF6S3-1">
          <mxGeometry x="490" y="910" width="90" height="80" as="geometry" />
        </mxCell>
        <mxCell id="b4Ela1Tb-xCsp0HTF6S3-29" value="&lt;font style=&quot;font-size: 16px&quot;&gt;Consultar livros&lt;/font&gt;" style="ellipse;whiteSpace=wrap;html=1;align=left;" vertex="1" parent="b4Ela1Tb-xCsp0HTF6S3-1">
          <mxGeometry x="490" y="760" width="120" height="80" as="geometry" />
        </mxCell>
        <mxCell id="b4Ela1Tb-xCsp0HTF6S3-31" value="" style="ellipse;whiteSpace=wrap;html=1;align=left;" vertex="1" parent="b4Ela1Tb-xCsp0HTF6S3-1">
          <mxGeometry x="40" y="940" width="120" height="80" as="geometry" />
        </mxCell>
        <mxCell id="b4Ela1Tb-xCsp0HTF6S3-32" value="" style="ellipse;whiteSpace=wrap;html=1;align=left;" vertex="1" parent="b4Ela1Tb-xCsp0HTF6S3-1">
          <mxGeometry x="200" y="940" width="120" height="80" as="geometry" />
        </mxCell>
      </root>
    </mxGraphModel>
  </diagram>
</mxfile>
